 <svg  version="1.0" xmlns="http://www.w3.org/2000/svg"  width="300.000000pt" height="64.000000pt" viewBox="0 0 300.000000 64.000000"  preserveAspectRatio="xMidYMid meet">  <g transform="translate(0.000000,64.000000) scale(0.100000,-0.100000)" fill="#000000" stroke="none"> <path d="M575 620 c-124 -28 -242 -68 -333 -112 -131 -64 -232 -169 -232 -243 0 -38 15 -30 34 18 15 39 50 84 89 115 15 13 15 11 5 -20 -35 -111 -38 -133 -28 -185 6 -29 22 -73 35 -99 27 -53 25 -64 -10 -64 -27 0 -63 48 -84 112 -7 20 -19 42 -27 48 -12 10 -14 8 -14 -16 0 -35 54 -153 72 -158 7 -3 48 -6 90 -9 l77 -4 -28 36 c-80 101 -103 218 -61 305 54 113 203 200 460 271 101 28 70 31 -45 5z"/> <path d="M415 520 c-86 -35 -98 -162 -20 -210 81 -50 185 6 185 102 0 75 -95 138 -165 108z m128 -65 c-2 -8 -11 -11 -18 -9 -10 4 -12 -1 -8 -15 3 -12 9 -21 14 -21 5 0 9 -7 9 -15 0 -8 -4 -15 -10 -15 -5 0 -10 7 -10 15 0 17 -16 20 -25 5 -3 -5 -1 -10 5 -10 6 0 9 -4 6 -9 -3 -5 3 -11 14 -14 24 -6 17 -33 -11 -40 -14 -4 -19 0 -20 16 -2 22 -2 21 -6 0 -3 -15 -12 -23 -24 -23 -22 0 -26 28 -4 36 22 9 18 30 -4 30 -11 0 -18 -4 -15 -7 2 -4 0 -10 -5 -14 -6 -3 -7 -13 -4 -22 4 -10 2 -14 -4 -10 -6 4 -13 1 -16 -5 -2 -8 -10 -1 -17 15 -7 15 -17 27 -22 27 -13 0 -9 37 5 52 8 7 12 19 9 26 -2 8 8 12 30 12 18 0 38 4 45 8 21 13 92 2 86 -13z"/> <path d="M280 434 c-124 -112 -132 -269 -21 -385 43 -45 71 -61 71 -41 0 4 -20 32 -45 62 -25 30 -45 58 -45 62 0 17 -2 24 -12 35 -15 18 -13 107 3 146 10 25 52 77 62 77 1 0 3 -14 3 -32 1 -31 42 -79 89 -105 16 -9 18 -24 18 -105 0 -52 -3 -106 -7 -121 -6 -24 -4 -26 16 -18 22 8 23 14 26 135 2 115 1 126 -15 126 -33 0 -79 37 -97 79 -16 35 -17 47 -8 78 6 20 10 39 8 41 -3 2 -23 -13 -46 -34z"/> <path d="M500 95 l0 -85 55 0 c48 0 55 2 55 20 0 16 -7 20 -30 20 l-30 0 0 65 c0 63 -1 65 -25 65 -25 0 -25 -1 -25 -85z"/> <path d="M624 158 c3 -13 6 -51 6 -85 l0 -63 55 0 c48 0 55 2 55 20 0 16 -7 20 -35 20 -24 0 -35 5 -35 15 0 10 10 15 30 15 23 0 30 4 30 20 0 16 -7 20 -30 20 -40 0 -38 18 2 22 22 2 34 9 36 21 3 15 -5 17 -58 17 -60 0 -62 -1 -56 -22z"/> <path d="M775 155 c-29 -28 -33 -79 -10 -112 18 -25 63 -37 105 -28 28 6 30 10 30 51 0 44 0 44 -35 44 -24 0 -35 -5 -35 -15 0 -8 7 -15 15 -15 8 0 15 -7 15 -15 0 -19 -34 -20 -49 -1 -7 8 -11 27 -9 43 3 25 7 28 46 31 34 3 42 7 42 23 0 16 -7 19 -45 19 -35 0 -52 -6 -70 -25z"/> <path d="M936 108 c-10 -40 -20 -79 -23 -85 -3 -9 5 -13 21 -13 19 0 26 5 26 20 0 28 46 28 53 0 3 -14 14 -20 31 -20 29 0 30 0 17 32 -6 13 -17 49 -26 81 -15 55 -17 57 -48 57 -33 0 -34 -1 -51 -72z m64 -10 c0 -10 -7 -18 -15 -18 -17 0 -18 4 -8 38 4 18 8 20 14 10 5 -7 9 -21 9 -30z"/> <path d="M1095 155 c-17 -16 -25 -35 -25 -58 0 -51 27 -78 83 -84 43 -5 47 -4 47 16 0 16 -6 21 -29 21 -36 0 -53 20 -49 57 3 24 8 28 41 31 29 3 37 7 37 23 0 30 -73 27 -105 -6z"/> <path d="M1210 173 c0 -4 11 -26 25 -48 14 -24 25 -56 25 -78 0 -34 3 -38 23 -35 18 2 21 8 19 31 -2 18 9 49 28 83 l30 54 -28 0 c-24 0 -30 -5 -38 -37 l-10 -38 -10 35 c-8 27 -16 36 -37 38 -15 2 -27 0 -27 -5z"/> <path d="M1420 95 c0 -50 4 -85 10 -85 6 0 10 35 10 85 0 50 -4 85 -10 85 -6 0 -10 -35 -10 -85z"/> <path d="M1470 96 c0 -73 2 -86 16 -86 15 0 16 9 10 73 l-6 72 42 -72 c24 -40 49 -73 56 -73 9 0 12 24 12 85 0 50 -4 85 -10 85 -6 0 -10 -29 -10 -67 l0 -68 -38 65 c-20 36 -45 66 -55 68 -15 3 -17 -6 -17 -82z"/> <path d="M1610 170 c0 -5 11 -10 25 -10 24 0 25 -2 25 -75 0 -62 3 -75 16 -75 13 0 15 12 12 75 l-3 75 28 0 c15 0 27 5 27 10 0 6 -28 10 -65 10 -37 0 -65 -4 -65 -10z"/> <path d="M1749 110 c-1 -38 -2 -76 -3 -82 -1 -9 16 -14 47 -16 28 -2 47 1 47 7 0 6 -16 11 -35 11 -32 0 -35 2 -35 30 0 28 3 30 35 30 19 0 35 5 35 10 0 6 -16 10 -35 10 -31 0 -35 3 -35 25 0 22 4 25 35 25 19 0 35 5 35 10 0 6 -20 10 -45 10 l-45 0 -1 -70z"/> <path d="M1860 95 c0 -71 3 -85 16 -85 12 0 15 9 12 37 -1 21 0 37 5 36 4 -2 14 -3 22 -3 8 0 18 -14 23 -32 4 -17 13 -33 20 -36 16 -5 15 11 -2 53 -13 29 -13 35 0 46 34 28 1 69 -57 69 l-39 0 0 -85z m78 38 c2 -14 -3 -23 -17 -28 -29 -9 -39 0 -33 30 6 33 45 32 50 -2z"/> <path d="M1990 95 c0 -50 4 -85 10 -85 6 0 10 29 10 68 l0 67 40 -65 c22 -36 45 -65 51 -65 6 0 12 33 15 83 5 71 3 82 -11 82 -14 0 -16 -10 -13 -65 1 -36 2 -65 2 -65 -1 0 -18 29 -39 65 -53 90 -65 86 -65 -20z"/> <path d="M2185 168 c-38 -102 -52 -158 -41 -158 7 0 16 12 22 26 6 19 17 28 36 30 22 2 28 -3 37 -27 5 -16 15 -29 20 -29 15 0 14 5 -15 92 -24 74 -47 99 -59 66z m34 -75 c1 -7 -8 -13 -19 -13 -24 0 -23 -2 -8 41 12 34 12 34 19 9 4 -14 7 -31 8 -37z"/> <path d="M2250 170 c0 -5 11 -10 25 -10 24 0 25 -2 25 -75 0 -60 3 -75 15 -75 12 0 15 15 15 75 0 73 1 75 25 75 14 0 25 5 25 10 0 6 -28 10 -65 10 -37 0 -65 -4 -65 -10z"/> <path d="M2390 95 c0 -50 4 -85 10 -85 6 0 10 35 10 85 0 50 -4 85 -10 85 -6 0 -10 -35 -10 -85z"/> <path d="M2454 159 c-29 -32 -26 -105 5 -130 32 -26 73 -24 99 4 29 30 31 106 4 130 -27 24 -85 22 -108 -4z m90 -15 c32 -32 8 -114 -34 -114 -42 0 -65 63 -40 111 13 23 53 25 74 3z"/> <path d="M2606 98 c0 -57 4 -83 13 -86 10 -3 12 12 9 66 -1 39 -1 69 1 67 2 -2 20 -32 40 -66 52 -90 61 -88 61 15 0 98 -17 118 -22 25 l-3 -61 -35 61 c-50 87 -65 82 -64 -21z"/> <path d="M2781 108 c-13 -40 -26 -79 -28 -85 -3 -7 0 -13 6 -13 7 0 16 13 22 28 8 23 16 29 39 29 24 0 30 -5 35 -29 4 -16 13 -28 22 -28 8 0 13 6 10 12 -2 7 -15 46 -28 86 -16 50 -28 72 -39 72 -11 0 -23 -22 -39 -72z m54 0 c6 -24 4 -28 -15 -28 -18 0 -21 4 -16 23 3 12 6 29 6 37 0 21 17 0 25 -32z"/> <path d="M2908 95 l3 -85 45 0 c24 0 44 5 44 10 0 6 -16 10 -35 10 l-35 0 0 75 c0 53 -4 75 -12 75 -10 0 -12 -22 -10 -85z"/> </g> </svg> 